<?xml version="1.0" encoding="iso-8859-1"?>
<!-- Uploaded to: SVG Repo, www.svgrepo.com, Generator: SVG Repo Mixer Tools -->
<!DOCTYPE svg PUBLIC "-//W3C//DTD SVG 1.1//EN" "http://www.w3.org/Graphics/SVG/1.1/DTD/svg11.dtd">
<svg height="800px" width="800px" version="1.1" id="Capa_1" xmlns="http://www.w3.org/2000/svg" xmlns:xlink="http://www.w3.org/1999/xlink" 
	 viewBox="0 0 297.5 297.5" xml:space="preserve">
<g id="XMLID_30_">
	<g>
		<path style="fill:#D5BA2F;" d="M43.32,268.23v1.09c-3.85,0-6.97,3.13-6.97,6.98v1.03h-8.93c-1.75,0-3.16-1.42-3.16-3.16v-5.94
			H43.32z"/>
		<path style="fill:#D5BA2F;" d="M72.34,268.23v1.09c-3.85,0-6.97,3.13-6.97,6.98v1.03H50.29v-1.03c0-3.85-3.12-6.98-6.97-6.98
			v-1.09H72.34z"/>
		<path style="fill:#D5BA2F;" d="M101.37,268.23v2.51c-1.41,0-2.82,0.3-4.12,0.89l-12.55,5.7h-5.38v-1.03
			c0-3.85-3.13-6.98-6.98-6.98v-1.09H101.37z"/>
		<path d="M293.16,213.38v30.41c0,12.73-10.35,23.08-23.08,23.08h-42.66v7.3c0,12.73-10.35,23.08-23.08,23.08h-88.46
			c-1.42,0-2.83-0.3-4.12-0.89l-10.39-4.73l-10.39,4.73c-1.3,0.59-2.7,0.89-4.12,0.89H27.42c-12.73,0-23.08-10.35-23.08-23.08v-15.9
			V40.59c0-5.5,4.46-9.96,9.96-9.96h55.78V10.21c0-5.5,4.46-9.96,9.96-9.96h101.58c2.86,0,5.58,1.23,7.47,3.37
			c1.89,2.15,2.77,5,2.41,7.84c-0.13,1-12.67,100.63-14.45,129.96c-0.22,3.64,1.13,7.21,3.8,10.04c3.1,3.3,7.5,5.19,12.05,5.19
			h43.54C267.72,156.65,293.16,182.1,293.16,213.38z M273.24,243.79v-5.94h-19.06h-27.07c0.21,1.94,0.31,9.1,0.31,9.1h19.78v-1.03
			c0-3.85,3.13-6.98,6.98-6.98c3.85,0,6.97,3.13,6.97,6.98v1.03h8.93C271.82,246.95,273.24,245.53,273.24,243.79z M273.24,217.93
			v-4.55c0-20.3-16.51-36.8-36.8-36.8H192.9c-10.02,0-19.7-4.18-26.56-11.46c-6.47-6.88-9.73-15.72-9.18-24.91
			c1.48-24.31,9.81-92.83,13.18-120.04H90v10.46h25.88c2.86,0,5.58,1.23,7.47,3.37c1.89,2.15,2.77,5,2.41,7.84
			c-0.12,1-12.67,100.63-14.45,129.96c-0.22,3.64,1.13,7.21,3.8,10.04c3.11,3.3,7.5,5.19,12.06,5.19h43.53
			c21.98,0,41.06,12.58,50.47,30.9H273.24z M207.5,274.17v-5.94h-19.06h-21.77H144.9h-43.53H72.34H43.32H24.26v5.94
			c0,1.74,1.41,3.16,3.16,3.16h8.93v-1.03c0-3.85,3.12-6.98,6.97-6.98s6.97,3.13,6.97,6.98v1.03h15.08v-1.03
			c0-3.85,3.12-6.98,6.97-6.98c3.85,0,6.98,3.13,6.98,6.98v1.03h5.38l12.55-5.7c1.3-0.59,2.71-0.89,4.12-0.89
			c1.4,0,2.81,0.3,4.12,0.89l12.55,5.7h19.89v-1.03c0-3.85,3.12-6.98,6.97-6.98c3.85,0,6.98,3.13,6.98,6.98v1.03h7.82v-1.03
			c0-3.85,3.12-6.98,6.97-6.98c3.85,0,6.97,3.13,6.97,6.98v1.03h7.83v-1.03c0-3.85,3.12-6.98,6.97-6.98c3.85,0,6.97,3.13,6.97,6.98
			v1.03h8.93C206.08,277.33,207.5,275.91,207.5,274.17z M207.5,248.31v-4.56c0-20.29-16.51-36.8-36.8-36.8h-43.53
			c-10.03,0-19.71-4.17-26.57-11.45c-6.47-6.88-9.73-15.73-9.17-24.91c1.47-24.31,9.8-92.83,13.17-120.04H24.26v197.76H207.5z"/>
		<path style="fill:#D5BA2F;" d="M273.24,237.85v5.94c0,1.74-1.42,3.16-3.16,3.16h-8.93v-1.03c0-3.85-3.12-6.98-6.97-6.98v-1.09
			H273.24z"/>
		<path style="fill:#9EA584;" d="M273.24,213.38v4.55h-52.07c-9.41-18.32-28.49-30.9-50.47-30.9h-43.53
			c-4.56,0-8.95-1.89-12.06-5.19c-2.67-2.83-4.02-6.4-3.8-10.04c1.78-29.33,14.33-128.96,14.45-129.96
			c0.36-2.84-0.52-5.69-2.41-7.84c-1.89-2.14-4.61-3.37-7.47-3.37H90V20.17h80.34c-3.37,27.21-11.7,95.73-13.18,120.04
			c-0.55,9.19,2.71,18.03,9.18,24.91c6.86,7.28,16.54,11.46,26.56,11.46h43.54C256.73,176.58,273.24,193.08,273.24,213.38z"/>
		<path style="fill:#D5BA2F;" d="M254.18,237.85v1.09c-3.85,0-6.98,3.13-6.98,6.98v1.03h-19.78c0,0-0.1-7.16-0.31-9.1H254.18z"/>
		<path style="fill:#D5BA2F;" d="M207.5,268.23v5.94c0,1.74-1.42,3.16-3.16,3.16h-8.93v-1.03c0-3.85-3.12-6.98-6.97-6.98v-1.09
			H207.5z"/>
		<path style="fill:#9EA584;" d="M207.5,243.75v4.56H24.26V50.55h80.34c-3.37,27.21-11.7,95.73-13.17,120.04
			c-0.56,9.18,2.7,18.03,9.17,24.91c6.86,7.28,16.54,11.45,26.57,11.45h43.53C190.99,206.95,207.5,223.46,207.5,243.75z"/>
		<path style="fill:#D5BA2F;" d="M188.44,268.23v1.09c-3.85,0-6.97,3.13-6.97,6.98v1.03h-7.83v-1.03c0-3.85-3.12-6.98-6.97-6.98
			v-1.09H188.44z"/>
		<path style="fill:#D5BA2F;" d="M166.67,268.23v1.09c-3.85,0-6.97,3.13-6.97,6.98v1.03h-7.82v-1.03c0-3.85-3.13-6.98-6.98-6.98
			v-1.09H166.67z"/>
		<path style="fill:#D5BA2F;" d="M144.9,268.23v1.09c-3.85,0-6.97,3.13-6.97,6.98v1.03h-19.89l-12.55-5.7
			c-1.31-0.59-2.72-0.89-4.12-0.89v-2.51H144.9z"/>
	</g>
	<g>
	</g>
</g>
</svg>