<?xml version="1.0" encoding="iso-8859-1"?>
<!-- Uploaded to: SVG Repo, www.svgrepo.com, Generator: SVG Repo Mixer Tools -->
<svg height="800px" width="800px" version="1.1" id="Layer_1" xmlns="http://www.w3.org/2000/svg" xmlns:xlink="http://www.w3.org/1999/xlink" 
	 viewBox="0 0 512 512" xml:space="preserve">
<path style="fill:#FDE265;" d="M429.126,319.824l-99.024-36.009c-7.008-2.55-14.756,1.068-17.304,8.075
	c-2.549,7.009,1.067,14.757,8.076,17.304l99.024,36.009c1.524,0.555,3.081,0.817,4.614,0.817c5.517,0,10.697-3.407,12.691-8.892
	C439.75,330.121,436.134,322.373,429.126,319.824z"/>
<path style="fill:#FCB82D;" d="M330.102,283.816c-7.008-2.55-14.756,1.068-17.304,8.075c-2.549,7.009,1.067,14.757,8.076,17.304
	l55.872,20.317l6.43-26.398L330.102,283.816z"/>
<path style="fill:#FF8B1B;" d="M221.958,503.56c-76.94,0-139.534-62.595-139.534-139.534c0-28.328,14.734-63.781,44.961-108.026
	c-30.227-44.246-44.961-79.699-44.961-108.026c0-76.94,62.595-139.534,139.534-139.534s139.534,62.595,139.534,139.534
	c0,28.327-14.734,63.779-44.96,108.026c30.226,44.247,44.96,79.7,44.96,108.026C361.492,440.966,298.898,503.56,221.958,503.56z
	 M221.958,89.459c-32.265,0-58.514,26.249-58.514,58.514c0,8.31,9.728,35.278,46.189,83.639c10.825,14.358,10.825,34.415,0,48.775
	c-36.46,48.361-46.188,75.328-46.188,83.639c0,32.265,26.249,58.514,58.514,58.514s58.514-26.249,58.514-58.514
	c0-8.31-9.728-35.279-46.189-83.639c-10.824-14.36-10.824-34.415-0.001-48.773c36.462-48.363,46.19-75.33,46.19-83.641
	C280.473,115.709,254.223,89.459,221.958,89.459z"/>
<path style="fill:#FDE265;" d="M334.486,147.974c0-62.048-50.479-112.527-112.527-112.527c-62.048,0-112.527,50.48-112.527,112.527
	c0,25.377,17.164,61.694,51.036,108.026c-33.872,46.332-51.036,82.649-51.036,108.026c0,62.048,50.48,112.527,112.527,112.527
	c62.049,0,112.527-50.48,112.527-112.527c0-25.377-17.164-61.694-51.036-108.026C317.322,209.668,334.486,173.351,334.486,147.974z
	 M307.479,364.026c0,47.157-38.365,85.521-85.521,85.521c-47.157,0-85.521-38.364-85.521-85.521
	c0-20.258,18.336-55.736,51.631-99.897c3.628-4.812,3.628-11.446,0-16.258c-33.295-44.161-51.631-79.639-51.631-99.897
	c0-47.157,38.364-85.521,85.521-85.521c47.156,0,85.521,38.364,85.521,85.521c0,20.258-18.336,55.736-51.631,99.897
	c-3.628,4.812-3.628,11.446,0,16.258C289.143,308.29,307.479,343.768,307.479,364.026z"/>
<g>
	<path style="fill:#FF5800;" d="M127.386,256c-11.033,16.15-19.992,31.123-26.933,45.011h94.321
		c4.375-6.386,9.303-13.254,14.86-20.624c5.531-7.336,8.218-16.159,8.097-24.95h-90.725
		C127.132,255.625,127.256,255.811,127.386,256z"/>
	<path style="fill:#FF5800;" d="M316.912,255.437h-90.725c-0.12,8.791,2.566,17.614,8.096,24.95
		c5.557,7.371,10.485,14.237,14.86,20.624h94.321c-6.942-13.888-15.9-28.861-26.933-45.011
		C316.66,255.811,316.784,255.625,316.912,255.437z"/>
</g>
<g>
	<path style="fill:#FCB82D;" d="M160.466,256c-11.881,16.251-21.696,31.265-29.446,45.011h31.435
		c7.162-11.416,15.722-23.761,25.613-36.882c1.933-2.563,2.826-5.644,2.698-8.692h-30.708
		C160.196,255.625,160.328,255.811,160.466,256z"/>
	<path style="fill:#FCB82D;" d="M283.858,255.437H253.15c-0.127,3.047,0.765,6.128,2.698,8.692
		c9.891,13.121,18.451,25.466,25.613,36.882h31.435c-7.75-13.746-17.566-28.76-29.446-45.011
		C283.588,255.811,283.721,255.625,283.858,255.437z"/>
</g>
<path style="fill:#FDE265;" d="M338.987,242.497H104.93c-7.457,0-13.503,6.046-13.503,13.503c0,7.457,6.046,13.503,13.503,13.503
	h234.057c7.458,0,13.503-6.046,13.503-13.503C352.49,248.543,346.445,242.497,338.987,242.497z"/>
<path style="fill:#FCB82D;" d="M131.936,256c0-7.457,6.046-13.503,13.503-13.503h-40.51c-7.457,0-13.503,6.046-13.503,13.503
	c0,7.457,6.046,13.503,13.503,13.503h40.51C137.982,269.503,131.936,263.457,131.936,256z"/>
<path style="fill:#FDE265;" d="M356.991,190.734H86.925c-7.147,0-12.941,5.794-12.941,12.941c0,7.147,5.794,12.941,12.941,12.941
	h270.066c7.148,0,12.941-5.794,12.941-12.941C369.932,196.528,364.139,190.734,356.991,190.734z"/>
<path style="fill:#FCB82D;" d="M113.932,203.675c0-7.147,5.794-12.941,12.941-12.941H86.925c-7.147,0-12.941,5.794-12.941,12.941
	c0,7.147,5.794,12.941,12.941,12.941h39.947C119.726,216.615,113.932,210.821,113.932,203.675z"/>
<path style="fill:#FF8B1B;" d="M356.991,216.615H86.925c-7.147,0-12.941,5.794-12.941,12.941c0,7.147,5.794,12.941,12.941,12.941
	h270.066c7.148,0,12.941-5.794,12.941-12.941C369.932,222.409,364.139,216.615,356.991,216.615z"/>
<path style="fill:#FF5800;" d="M113.932,229.556c0-7.147,5.794-12.941,12.941-12.941H86.925c-7.147,0-12.941,5.794-12.941,12.941
	c0,7.147,5.794,12.941,12.941,12.941h39.947C119.726,242.497,113.932,236.703,113.932,229.556z"/>
<path d="M432.01,311.894l-90.561-32.931c-0.14-0.051-0.28-0.087-0.421-0.129c-0.188-0.322-0.375-0.643-0.565-0.965
	c11.409-0.765,20.465-10.267,20.465-21.867c0-1.844-0.253-3.626-0.684-5.338c10.246-1.575,18.126-10.426,18.126-21.106
	c0-4.866-1.653-9.343-4.401-12.941c2.749-3.598,4.401-8.075,4.401-12.941c0-9.361-6.057-17.318-14.451-20.205
	c3.987-12.716,6.011-24.627,6.011-35.496c0-33.44-10.929-65.014-31.603-91.31c-2.881-3.664-8.186-4.297-11.85-1.418
	c-3.664,2.881-4.299,8.186-1.418,11.851c18.312,23.292,27.992,51.259,27.992,80.878c0,10.221-2.213,21.761-6.529,34.321h-10.698
	c4.714-12.789,7.099-24.303,7.099-34.321c0-66.702-54.266-120.967-120.967-120.967c-66.702,0-120.967,54.265-120.967,120.967
	c0,10.018,2.386,21.531,7.098,34.321H97.393c-4.315-12.561-6.529-24.102-6.529-34.321c0-72.285,58.809-131.095,131.095-131.095
	c29.74,0,57.797,9.752,81.139,28.199c3.656,2.889,8.965,2.27,11.854-1.389c2.89-3.657,2.27-8.964-1.387-11.855
	C287.212,11.009,255.535,0,221.958,0C140.366,0,73.985,66.381,73.985,147.974c0,10.869,2.023,22.78,6.011,35.496
	c-8.393,2.887-14.451,10.844-14.451,20.205c0,4.866,1.653,9.343,4.401,12.941c-2.749,3.598-4.401,8.075-4.401,12.941
	c0,10.68,7.88,19.53,18.126,21.106c-0.431,1.713-0.684,3.494-0.684,5.338c0,11.602,9.056,21.103,20.467,21.869
	c-19.807,33.728-29.469,62.006-29.469,86.158C73.985,445.619,140.366,512,221.958,512c81.594,0,147.974-66.381,147.974-147.974
	c0-9.227-1.412-19.057-4.257-29.559l51.335,18.667c11.231,4.087,24.041-1.898,28.123-13.122
	C449.267,328.642,443.381,316.028,432.01,311.894z M82.424,203.675c0-2.482,2.019-4.501,4.501-4.501H209.58
	c4.661,0,8.44-3.779,8.44-8.44s-3.779-8.44-8.44-8.44h-23.022c-11.569-20.048-14.675-31.203-14.675-34.321
	c0-27.612,22.463-50.075,50.075-50.075c27.611,0,50.075,22.463,50.075,50.075c0,3.15-3.127,14.308-14.677,34.321h-12.892
	c-4.662,0-8.44,3.779-8.44,8.44s3.778,8.44,8.44,8.44h112.527c2.482,0,4.501,2.019,4.501,4.501c0,2.482-2.019,4.501-4.501,4.501
	H86.925C84.443,208.176,82.424,206.157,82.424,203.675z M144.877,147.974c0-42.503,34.579-77.081,77.081-77.081
	s77.081,34.579,77.081,77.081c0,5.638-1.925,16.163-10.977,34.321h-11.409c7.867-14.882,12.259-27.075,12.259-34.321
	c0-36.919-30.035-66.954-66.954-66.954s-66.954,30.035-66.954,66.954c0,7.23,4.407,19.45,12.264,34.321h-11.41
	C146.825,164.173,144.877,153.638,144.877,147.974z M117.87,147.974c0-57.395,46.693-104.088,104.088-104.088
	s104.088,46.693,104.088,104.088c0,9.457-2.812,20.997-8.35,34.321h-10.965c6.092-13.632,9.187-25.156,9.187-34.321
	c0-51.81-42.151-93.96-93.96-93.96s-93.96,42.151-93.96,93.96c0,9.168,3.089,20.686,9.183,34.321h-10.964
	C120.679,168.97,117.87,157.433,117.87,147.974z M86.925,225.055h270.066c2.482,0,4.501,2.019,4.501,4.501
	c0,2.482-2.019,4.501-4.501,4.501h-18.004H104.93H86.925c-2.482,0-4.501-2.019-4.501-4.501
	C82.424,227.074,84.443,225.055,86.925,225.055z M99.866,256c0-2.792,2.272-5.064,5.064-5.064h234.057
	c2.792,0,5.064,2.272,5.064,5.064c0,2.792-2.272,5.064-5.064,5.064H104.93C102.138,261.064,99.866,258.792,99.866,256z
	 M167.621,277.943c-19.634,28.228-39.623,62.708-39.623,86.084c0,51.81,42.151,93.96,93.96,93.96s93.96-42.151,93.96-93.96
	c0-23.418-20.084-57.988-39.625-86.084h12.294c24.855,36.74,37.459,65.703,37.459,86.084c0,57.395-46.693,104.088-104.088,104.088
	S117.87,421.421,117.87,364.026c0-20.382,12.604-49.344,37.459-86.084H167.621z M227.545,285.469
	c36.496,48.407,44.488,73.12,44.488,78.559c0,27.612-22.464,50.075-50.075,50.075c-27.612,0-50.075-22.463-50.075-50.075
	c0-5.438,7.993-30.151,44.488-78.559c1.776-2.355,3.323-4.886,4.643-7.526h1.879C224.212,280.582,225.771,283.113,227.545,285.469z
	 M155.004,364.026c0,36.919,30.035,66.954,66.954,66.954s66.954-30.035,66.954-66.954c0-11.952-12.124-40.779-45.919-86.084h12.584
	c27.627,37.975,43.464,69.326,43.464,86.084c0,42.503-34.579,77.081-77.081,77.081s-77.081-34.579-77.081-77.081
	c0-16.771,15.828-48.091,43.465-86.084h12.582C167.127,323.25,155.004,352.075,155.004,364.026z M221.958,495.121
	c-72.285,0-131.095-58.809-131.095-131.095c0-23.001,10.564-51.184,32.268-86.084h11.975
	c-22.933,35.631-34.116,63.867-34.116,86.084c0,66.702,54.265,120.967,120.967,120.967c66.701,0,120.967-54.265,120.967-120.967
	c0-22.216-11.183-50.453-34.116-86.084h11.974c21.707,34.911,32.27,63.083,32.27,86.084
	C353.053,436.312,294.244,495.121,221.958,495.121z M429.269,334.246c-0.942,2.593-3.897,3.97-6.488,3.028
	c0,0-63.637-23.091-64.075-23.174c-1.728-4.234-3.662-8.57-5.794-13.008l73.33,26.664
	C428.865,328.711,430.224,331.622,429.269,334.246z"/>
</svg>