<?xml version="1.0" encoding="iso-8859-1"?>
<!-- Uploaded to: SVG Repo, www.svgrepo.com, Generator: SVG Repo Mixer Tools -->
<svg version="1.1" id="Layer_1" xmlns="http://www.w3.org/2000/svg" xmlns:xlink="http://www.w3.org/1999/xlink" 
	 viewBox="0 0 511.999 511.999" xml:space="preserve">
<path style="fill:#ACAAB1;" d="M169.063,372.507l30.02,30.02c3.549,3.549,3.549,9.303,0,12.852l-80.227,80.227
	c-10.959,10.959-26.325,16.306-41.72,14.517L17.557,503.2c-5.405-0.628-9.667-4.891-10.296-10.296l-6.922-59.579
	c-1.789-15.394,3.558-30.761,14.517-41.72l80.227-80.227c3.549-3.549,9.303-3.549,12.852,0l30.021,30.021L169.063,372.507z"/>
<g>
	<path style="opacity:0.38;fill:#3E3B43;enable-background:new    ;" d="M179.902,382.59L99.824,462.67
		c-10.959,10.958-26.325,16.306-41.72,14.517l-52.622-6.114l2.537,21.832c0.628,5.405,4.891,9.667,10.296,10.296l59.579,6.922
		c15.394,1.789,30.761-3.558,41.719-14.517l80.227-80.227c3.549-3.549,3.549-9.303,0-12.852L179.902,382.59z"/>
	<path style="fill:#3E3B43;" d="M175.156,304.196l31.108,31.108l-60.425,60.425c-3.825,3.825-9.488,5.156-14.616,3.433l-8.197-2.752
		c-4.232-1.421-7.554-4.743-8.975-8.975l-2.752-8.197c-1.722-5.128-0.392-10.791,3.433-14.616L175.156,304.196z"/>
</g>
<rect x="298.369" y="6.757" transform="matrix(0.7071 0.7071 -0.7071 0.7071 228.2592 -170.8516)" style="fill:#EE8700;" width="43.993" height="366.702"/>
<g>
	<path style="fill:#AA6100;" d="M221.432,320.264c-1.423-1.386-2.324-3.307-2.373-5.452c-0.035-1.503-0.419-32.082,22.051-76.569
		l26.807-26.928c2.623,2.561,3.176,6.695,1.115,9.899c-25.77,40.061-32.135,72.163-33.703,85.954L221.432,320.264z"/>
	<path style="fill:#AA6100;" d="M248.89,292.677c-1.944-1.947-2.81-4.857-2.016-7.696c0.606-2.17,12.79-45.105,38.257-90.76
		l29.903-29.906c2.645,2.638,3.112,6.869,0.914,10.052c-25.642,37.163-41.945,79.116-49.312,100.564"/>
	<path style="fill:#AA6100;" d="M303.888,237.682c-2.822-2.815-3.115-7.366-0.553-10.532c0.531-0.661,32.646-41.086,41.281-92.411
		l14.773-14.772c1.616,1.618,2.518,3.924,2.266,6.376c-3.226,31.45-14.968,59.406-25.796,79.368L303.888,237.682z"/>
	<path style="fill:#AA6100;" d="M368.118,173.734c-2.226-2.117-3.096-5.437-1.945-8.493
		c27.108-71.975,72.882-112.816,74.816-114.519c3.266-2.875,8.249-2.559,11.124,0.709c2.874,3.265,2.559,8.242-0.704,11.12l0,0
		c-0.408,0.359-37.611,33.667-63.585,91.521L368.118,173.734z"/>
</g>
<path style="fill:#CD2A00;" d="M433.304,2.948l77.187,77.187c1.882,1.882,1.882,4.933,0,6.815l-13.583,13.583
	c-1.882,1.882-4.933,1.882-6.815,0l-77.187-77.187c-1.882-1.882-1.882-4.933,0-6.815l13.583-13.583
	C428.371,1.067,431.422,1.067,433.304,2.948z"/>
<g style="opacity:0.46;">
	<path style="fill:#3E3B43;" d="M510.588,80.232l-11.503-11.503c1.882,1.882,1.882,4.933,0,6.815l-13.584,13.583
		c-1.882,1.882-4.933,1.882-6.815,0l-24.528-24.528l-77.46,77.46c-0.092,0.205-0.188,0.401-0.28,0.607l-19.707,19.663
		c-0.048-0.046-0.087-0.101-0.136-0.149l-32.124,32.124c0,0,0,0,0,0.001l-31.971,31.971l0,0l-68.431,68.431
		c-0.044,0.36-0.088,0.718-0.127,1.056l-13.897,13.094c-0.021-0.021-0.04-0.044-0.061-0.065l-15.106,15.107l-60.425,60.425
		c-3.825,3.825-9.488,5.156-14.616,3.433l-6.304-2.117l0.636,1.893c1.421,4.232,4.743,7.554,8.975,8.976l8.197,2.752
		c5.13,1.722,10.791,0.392,14.616-3.433l60.425-60.425l15.106-15.106c0.021,0.021,0.04,0.044,0.061,0.065l13.897-13.094
		c0.039-0.338,0.082-0.696,0.127-1.056l68.431-68.431l0,0l31.971-31.971v-0.001l32.124-32.124c0.047,0.047,0.086,0.102,0.136,0.148
		l19.707-19.663c0.092-0.205,0.187-0.402,0.28-0.607l77.46-77.46l24.529,24.529c1.882,1.882,4.933,1.882,6.815,0l13.583-13.583
		C512.47,85.165,512.47,82.115,510.588,80.232z"/>
</g>
</svg>